<svg id="visual" viewBox="0 0 540 960" width="540" height="960" xmlns="http://www.w3.org/2000/svg" xmlns:xlink="http://www.w3.org/1999/xlink" version="1.1"><path d="M0 39L11.3 45.5C22.7 52 45.3 65 67.8 65C90.3 65 112.7 52 135.2 60C157.7 68 180.3 97 202.8 103.5C225.3 110 247.7 94 270.2 86C292.7 78 315.3 78 337.8 81.2C360.3 84.3 382.7 90.7 405.2 92.2C427.7 93.7 450.3 90.3 472.8 80.7C495.3 71 517.7 55 528.8 47L540 39L540 0L528.8 0C517.7 0 495.3 0 472.8 0C450.3 0 427.7 0 405.2 0C382.7 0 360.3 0 337.8 0C315.3 0 292.7 0 270.2 0C247.7 0 225.3 0 202.8 0C180.3 0 157.7 0 135.2 0C112.7 0 90.3 0 67.8 0C45.3 0 22.7 0 11.3 0L0 0Z" fill="#7268ef"></path><path d="M0 87L11.3 93.5C22.7 100 45.3 113 67.8 113C90.3 113 112.7 100 135.2 109.5C157.7 119 180.3 151 202.8 167C225.3 183 247.7 183 270.2 181.5C292.7 180 315.3 177 337.8 173.8C360.3 170.7 382.7 167.3 405.2 160.8C427.7 154.3 450.3 144.7 472.8 138.3C495.3 132 517.7 129 528.8 127.5L540 126L540 37L528.8 45C517.7 53 495.3 69 472.8 78.7C450.3 88.3 427.7 91.7 405.2 90.2C382.7 88.7 360.3 82.3 337.8 79.2C315.3 76 292.7 76 270.2 84C247.7 92 225.3 108 202.8 101.5C180.3 95 157.7 66 135.2 58C112.7 50 90.3 63 67.8 63C45.3 63 22.7 50 11.3 43.5L0 37Z" fill="#7b6bf2"></path><path d="M0 183L11.3 202.3C22.7 221.7 45.3 260.3 67.8 268.3C90.3 276.3 112.7 253.7 135.2 268C157.7 282.3 180.3 333.7 202.8 353C225.3 372.3 247.7 359.7 270.2 345.3C292.7 331 315.3 315 337.8 302.2C360.3 289.3 382.7 279.7 405.2 281.2C427.7 282.7 450.3 295.3 472.8 304.8C495.3 314.3 517.7 320.7 528.8 323.8L540 327L540 124L528.8 125.5C517.7 127 495.3 130 472.8 136.3C450.3 142.7 427.7 152.3 405.2 158.8C382.7 165.3 360.3 168.7 337.8 171.8C315.3 175 292.7 178 270.2 179.5C247.7 181 225.3 181 202.8 165C180.3 149 157.7 117 135.2 107.5C112.7 98 90.3 111 67.8 111C45.3 111 22.7 98 11.3 91.5L0 85Z" fill="#846ff4"></path><path d="M0 337L11.3 357.8C22.7 378.7 45.3 420.3 67.8 431.5C90.3 442.7 112.7 423.3 135.2 424.8C157.7 426.3 180.3 448.7 202.8 458.3C225.3 468 247.7 465 270.2 445.8C292.7 426.7 315.3 391.3 337.8 381.7C360.3 372 382.7 388 405.2 399.2C427.7 410.3 450.3 416.7 472.8 419.8C495.3 423 517.7 423 528.8 423L540 423L540 325L528.8 321.8C517.7 318.7 495.3 312.3 472.8 302.8C450.3 293.3 427.7 280.7 405.2 279.2C382.7 277.7 360.3 287.3 337.8 300.2C315.3 313 292.7 329 270.2 343.3C247.7 357.7 225.3 370.3 202.8 351C180.3 331.7 157.7 280.3 135.2 266C112.7 251.7 90.3 274.3 67.8 266.3C45.3 258.3 22.7 219.7 11.3 200.3L0 181Z" fill="#8d72f7"></path><path d="M0 423L11.3 451.8C22.7 480.7 45.3 538.3 67.8 549.7C90.3 561 112.7 526 135.2 526C157.7 526 180.3 561 202.8 570.5C225.3 580 247.7 564 270.2 538.5C292.7 513 315.3 478 337.8 473.2C360.3 468.3 382.7 493.7 405.2 504.8C427.7 516 450.3 513 472.8 514.7C495.3 516.3 517.7 522.7 528.8 525.8L540 529L540 421L528.8 421C517.7 421 495.3 421 472.8 417.8C450.3 414.7 427.7 408.3 405.2 397.2C382.7 386 360.3 370 337.8 379.7C315.3 389.3 292.7 424.7 270.2 443.8C247.7 463 225.3 466 202.8 456.3C180.3 446.7 157.7 424.3 135.2 422.8C112.7 421.3 90.3 440.7 67.8 429.5C45.3 418.3 22.7 376.7 11.3 355.8L0 335Z" fill="#9576fa"></path><path d="M0 798L11.3 807.5C22.7 817 45.3 836 67.8 834.3C90.3 832.7 112.7 810.3 135.2 784.8C157.7 759.3 180.3 730.7 202.8 732.3C225.3 734 247.7 766 270.2 748.3C292.7 730.7 315.3 663.3 337.8 655.3C360.3 647.3 382.7 698.7 405.2 708.3C427.7 718 450.3 686 472.8 684.3C495.3 682.7 517.7 711.3 528.8 725.7L540 740L540 527L528.8 523.8C517.7 520.7 495.3 514.3 472.8 512.7C450.3 511 427.7 514 405.2 502.8C382.7 491.7 360.3 466.3 337.8 471.2C315.3 476 292.7 511 270.2 536.5C247.7 562 225.3 578 202.8 568.5C180.3 559 157.7 524 135.2 524C112.7 524 90.3 559 67.8 547.7C45.3 536.3 22.7 478.7 11.3 449.8L0 421Z" fill="#9d79fc"></path><path d="M0 961L11.3 961C22.7 961 45.3 961 67.8 961C90.3 961 112.7 961 135.2 961C157.7 961 180.3 961 202.8 961C225.3 961 247.7 961 270.2 961C292.7 961 315.3 961 337.8 961C360.3 961 382.7 961 405.2 961C427.7 961 450.3 961 472.8 961C495.3 961 517.7 961 528.8 961L540 961L540 738L528.8 723.7C517.7 709.3 495.3 680.7 472.8 682.3C450.3 684 427.7 716 405.2 706.3C382.7 696.7 360.3 645.3 337.8 653.3C315.3 661.3 292.7 728.7 270.2 746.3C247.7 764 225.3 732 202.8 730.3C180.3 728.7 157.7 757.3 135.2 782.8C112.7 808.3 90.3 830.7 67.8 832.3C45.3 834 22.7 815 11.3 805.5L0 796Z" fill="#a57dff"></path></svg>